<?xml version="1.0" encoding="UTF-8"?>
<!DOCTYPE svg PUBLIC "-//W3C//DTD SVG 1.1//EN" "http://www.w3.org/Graphics/SVG/1.1/DTD/svg11.dtd">
<svg xmlns="http://www.w3.org/2000/svg" version="1.1" width="991px" height="991px" style="shape-rendering:geometricPrecision; text-rendering:geometricPrecision; image-rendering:optimizeQuality; fill-rule:evenodd; clip-rule:evenodd" xmlns:xlink="http://www.w3.org/1999/xlink">
<g><path style="opacity:0.993" fill="#000000" d="M 463.5,-0.5 C 484.5,-0.5 505.5,-0.5 526.5,-0.5C 681.423,13.094 805.257,81.7607 898,205.5C 952.714,282.801 983.548,368.801 990.5,463.5C 990.5,484.5 990.5,505.5 990.5,526.5C 976.906,681.423 908.239,805.257 784.5,898C 707.199,952.714 621.199,983.548 526.5,990.5C 505.5,990.5 484.5,990.5 463.5,990.5C 308.577,976.906 184.743,908.239 92,784.5C 81.2251,769.949 71.7251,754.616 63.5,738.5C 67.0711,736.373 70.7378,734.206 74.5,732C 75.8333,731.333 77.1667,731.333 78.5,732C 84.7608,737.383 90.9275,742.883 97,748.5C 98.2709,751.433 99.9376,754.099 102,756.5C 108.188,761.69 114.021,767.19 119.5,773C 117.333,775.833 115.167,778.667 113,781.5C 111.417,786.1 112.917,787.934 117.5,787C 119.683,784.65 122.016,782.483 124.5,780.5C 129.741,783.828 129.407,785.995 123.5,787C 120.579,789.347 118.579,791.847 117.5,794.5C 121.015,792.378 124.681,792.045 128.5,793.5C 133.118,790.269 138.284,788.603 144,788.5C 144.5,788.167 145,787.833 145.5,787.5C 141.764,781.552 143.431,778.385 150.5,778C 162.461,776.385 174.461,775.719 186.5,776C 190.302,777.544 191.969,780.044 191.5,783.5C 196.221,780.473 201.221,777.973 206.5,776C 209.303,775.245 211.97,775.578 214.5,777C 222.167,783.333 229.167,790.333 235.5,798C 248.486,809.981 261.82,821.648 275.5,833C 283,837.918 290.667,842.584 298.5,847C 305.76,848.982 313.093,850.648 320.5,852C 327.037,857.234 330.871,864.067 332,872.5C 337.568,875.97 340.234,880.97 340,887.5C 338.013,888.218 336.179,889.218 334.5,890.5C 338.628,891.875 342.795,893.208 347,894.5C 347.591,898.291 347.091,901.958 345.5,905.5C 345.529,907.029 346.196,908.196 347.5,909C 351.7,910.367 356.033,910.867 360.5,910.5C 360.382,913.688 359.549,916.688 358,919.5C 357.333,925.5 357.333,931.5 358,937.5C 360.707,941.035 364.207,942.202 368.5,941C 378.039,936.626 385.039,929.793 389.5,920.5C 389.195,917.724 388.195,915.224 386.5,913C 379.758,911.798 374.091,908.798 369.5,904C 370.253,900.914 372.086,898.748 375,897.5C 375.333,893.833 375.667,890.167 376,886.5C 378.74,885.718 381.574,885.218 384.5,885C 384.525,879.69 382.525,875.024 378.5,871C 381.649,869.965 384.316,870.632 386.5,873C 391.143,873.83 395.81,874.497 400.5,875C 404.026,879.676 408.026,884.009 412.5,888C 415.396,889.698 418.396,889.864 421.5,888.5C 421.5,891.833 422.833,894.5 425.5,896.5C 429.122,893.375 433.122,890.875 437.5,889C 446.476,887.793 455.476,887.46 464.5,888C 467.874,888.521 470.874,889.854 473.5,892C 482.897,894.172 492.23,896.505 501.5,899C 502.981,901.762 504.647,904.429 506.5,907C 508.833,907.667 511.167,907.667 513.5,907C 517.031,905.394 520.698,904.228 524.5,903.5C 526.915,906.379 528.581,909.712 529.5,913.5C 533.546,917.091 538.212,918.257 543.5,917C 546.118,910.327 546.118,903.66 543.5,897C 543.645,895.774 543.978,894.607 544.5,893.5C 548.459,892.673 552.459,892.173 556.5,892C 569.835,882.742 579.002,885.909 584,901.5C 586.073,906.282 589.573,908.449 594.5,908C 596.815,906.704 597.815,904.704 597.5,902C 595.757,897.31 595.257,892.477 596,887.5C 598.855,883.656 602.688,881.823 607.5,882C 614.182,874.816 621.849,868.816 630.5,864C 639.157,861.007 647.824,858.007 656.5,855C 665.887,848.306 676.22,843.806 687.5,841.5C 691.156,842.286 694.823,842.453 698.5,842C 700.023,839.566 701.023,836.899 701.5,834C 716.662,825.169 730.995,815.169 744.5,804C 751.587,801.624 757.92,797.957 763.5,793C 765.167,792.333 766.833,792.333 768.5,793C 771.178,795.446 774.178,795.946 777.5,794.5C 778.019,790.551 778.186,786.551 778,782.5C 781.177,776.993 785.344,772.493 790.5,769C 799.707,760.461 808.207,751.294 816,741.5C 824.03,733.136 832.363,725.136 841,717.5C 843.333,714.167 845.667,710.833 848,707.5C 865.573,674.021 881.24,639.688 895,604.5C 896.503,598.487 898.003,592.487 899.5,586.5C 904.868,587.233 910.035,588.9 915,591.5C 916.833,591 918,589.833 918.5,588C 914.966,582.8 910.466,578.633 905,575.5C 905.058,565.922 906.725,556.588 910,547.5C 910.426,530.891 913.759,514.891 920,499.5C 924.568,496.446 928.068,492.613 930.5,488C 928.802,485.092 927.802,481.926 927.5,478.5C 928.333,474.514 928.499,470.514 928,466.5C 923.333,460.5 918.667,454.5 914,448.5C 912.438,446.043 911.438,443.376 911,440.5C 908.7,420.201 906.7,399.867 905,379.5C 903.333,377.167 901.667,374.833 900,372.5C 892.69,345.888 883.69,319.888 873,294.5C 865.866,278.226 857.2,262.892 847,248.5C 840.614,236.005 834.614,223.338 829,210.5C 822.5,204 816,197.5 809.5,191C 801.131,187.652 794.131,182.319 788.5,175C 774.58,165.74 761.913,155.074 750.5,143C 738.521,135.03 726.521,127.03 714.5,119C 710.419,117.529 706.419,115.862 702.5,114C 695.794,108.645 688.46,104.312 680.5,101C 675.115,95.9744 668.782,92.641 661.5,91C 653.106,90.2974 645.44,87.6308 638.5,83C 630.788,83.3236 623.788,81.3236 617.5,77C 608.498,76.2487 599.832,74.2487 591.5,71C 583.863,71.1845 576.53,69.8512 569.5,67C 549.181,66.8998 529.181,64.5665 509.5,60C 498.5,59.3333 487.5,59.3333 476.5,60C 474.079,61.5797 471.413,62.4131 468.5,62.5C 456.926,60.9061 445.426,61.2394 434,63.5C 432.072,63.0665 430.239,62.3998 428.5,61.5C 424.391,63.7657 420.391,66.2657 416.5,69C 396.067,75.1424 375.401,80.4757 354.5,85C 347.578,87.863 340.578,90.5297 333.5,93C 330.167,93.6667 326.833,93.6667 323.5,93C 318.072,91.411 312.572,90.2443 307,89.5C 301.153,90.1212 295.32,90.7878 289.5,91.5C 288.774,86.9633 286.107,85.13 281.5,86C 279.485,87.5553 279.152,89.3886 280.5,91.5C 282.409,90.6518 284.409,90.3184 286.5,90.5C 286.657,91.8734 286.49,93.2068 286,94.5C 285.586,94.0426 285.086,93.7093 284.5,93.5C 281.494,97.0265 279.994,101.026 280,105.5C 280.5,106 281,106.5 281.5,107C 279.624,108.017 277.624,108.851 275.5,109.5C 272.961,117.583 270.128,125.583 267,133.5C 262.093,137.371 256.926,140.871 251.5,144C 234.359,161.474 216.859,178.641 199,195.5C 190.395,206.609 181.228,217.275 171.5,227.5C 169.972,228.861 168.305,230.028 166.5,231C 156.534,232.575 146.868,235.241 137.5,239C 133.701,241.797 130.201,244.964 127,248.5C 126.208,252.079 124.875,255.412 123,258.5C 122.082,261.598 121.582,264.765 121.5,268C 122.444,273.94 123.944,279.773 126,285.5C 126.667,289.833 126.667,294.167 126,298.5C 125,299.833 124,301.167 123,302.5C 121.822,307.543 120.489,312.543 119,317.5C 109.158,334.515 99.8246,351.848 91,369.5C 87.8876,379.057 84.221,388.39 80,397.5C 79.5533,409.702 76.5533,421.368 71,432.5C 63.2503,439.777 58.917,448.777 58,459.5C 57.8333,464 57.6667,468.5 57.5,473C 57.8513,483.584 58.6846,494.084 60,504.5C 53.607,512.718 47.4403,521.051 41.5,529.5C 44.1664,536.808 48.8331,538.308 55.5,534C 59.6667,527.833 63.8333,521.667 68,515.5C 68.804,514.196 69.9707,513.529 71.5,513.5C 78.252,516.375 84.9186,519.542 91.5,523C 93.6166,524.731 95.1166,526.898 96,529.5C 99.107,550.039 102.607,570.539 106.5,591C 106.333,593.167 106.167,595.333 106,597.5C 103.737,602.239 100.903,606.406 97.5,610C 97.8717,612.709 99.3717,614.543 102,615.5C 103.81,621.058 104.476,626.725 104,632.5C 101.304,635.899 98.9703,639.566 97,643.5C 94.0964,645.227 90.9297,645.893 87.5,645.5C 87.3921,647.783 86.5588,649.783 85,651.5C 77.8169,657.342 72.1502,664.342 68,672.5C 65.3333,675.167 62.6667,677.833 60,680.5C 60.3631,684.801 60.3631,689.134 60,693.5C 56.8791,696.153 54.3791,699.319 52.5,703C 53.0578,705.058 54.3911,706.225 56.5,706.5C 58.937,704.773 61.6037,703.94 64.5,704C 65.8852,710.616 68.5518,716.782 72.5,722.5C 68.412,726.579 64.7454,730.912 61.5,735.5C 25.4767,670.41 4.80999,600.744 -0.5,526.5C -0.5,505.5 -0.5,484.5 -0.5,463.5C 13.094,308.577 81.7607,184.743 205.5,92C 282.801,37.2856 368.801,6.45229 463.5,-0.5 Z"/></g>
<g><path style="opacity:1" fill="#fdfdfd" d="M 63.5,738.5 C 62.5987,737.71 61.9321,736.71 61.5,735.5C 64.7454,730.912 68.412,726.579 72.5,722.5C 68.5518,716.782 65.8852,710.616 64.5,704C 61.6037,703.94 58.937,704.773 56.5,706.5C 54.3911,706.225 53.0578,705.058 52.5,703C 54.3791,699.319 56.8791,696.153 60,693.5C 60.3631,689.134 60.3631,684.801 60,680.5C 62.6667,677.833 65.3333,675.167 68,672.5C 72.1502,664.342 77.8169,657.342 85,651.5C 86.5588,649.783 87.3921,647.783 87.5,645.5C 90.9297,645.893 94.0964,645.227 97,643.5C 98.9703,639.566 101.304,635.899 104,632.5C 104.476,626.725 103.81,621.058 102,615.5C 99.3717,614.543 97.8717,612.709 97.5,610C 100.903,606.406 103.737,602.239 106,597.5C 106.167,595.333 106.333,593.167 106.5,591C 102.607,570.539 99.107,550.039 96,529.5C 95.1166,526.898 93.6166,524.731 91.5,523C 84.9186,519.542 78.252,516.375 71.5,513.5C 69.9707,513.529 68.804,514.196 68,515.5C 63.8333,521.667 59.6667,527.833 55.5,534C 48.8331,538.308 44.1664,536.808 41.5,529.5C 47.4403,521.051 53.607,512.718 60,504.5C 58.6846,494.084 57.8513,483.584 57.5,473C 57.6667,468.5 57.8333,464 58,459.5C 58.917,448.777 63.2503,439.777 71,432.5C 76.5533,421.368 79.5533,409.702 80,397.5C 84.221,388.39 87.8876,379.057 91,369.5C 99.8246,351.848 109.158,334.515 119,317.5C 120.489,312.543 121.822,307.543 123,302.5C 124,301.167 125,299.833 126,298.5C 126.667,294.167 126.667,289.833 126,285.5C 123.944,279.773 122.444,273.94 121.5,268C 121.582,264.765 122.082,261.598 123,258.5C 124.875,255.412 126.208,252.079 127,248.5C 130.201,244.964 133.701,241.797 137.5,239C 146.868,235.241 156.534,232.575 166.5,231C 168.305,230.028 169.972,228.861 171.5,227.5C 181.228,217.275 190.395,206.609 199,195.5C 216.859,178.641 234.359,161.474 251.5,144C 256.926,140.871 262.093,137.371 267,133.5C 270.128,125.583 272.961,117.583 275.5,109.5C 277.624,108.851 279.624,108.017 281.5,107C 281,106.5 280.5,106 280,105.5C 279.994,101.026 281.494,97.0265 284.5,93.5C 285.086,93.7093 285.586,94.0426 286,94.5C 286.49,93.2068 286.657,91.8734 286.5,90.5C 284.409,90.3184 282.409,90.6518 280.5,91.5C 279.152,89.3886 279.485,87.5553 281.5,86C 286.107,85.13 288.774,86.9633 289.5,91.5C 295.32,90.7878 301.153,90.1212 307,89.5C 312.572,90.2443 318.072,91.411 323.5,93C 326.833,93.6667 330.167,93.6667 333.5,93C 340.578,90.5297 347.578,87.863 354.5,85C 375.401,80.4757 396.067,75.1424 416.5,69C 420.391,66.2657 424.391,63.7657 428.5,61.5C 430.239,62.3998 432.072,63.0665 434,63.5C 445.426,61.2394 456.926,60.9061 468.5,62.5C 471.413,62.4131 474.079,61.5797 476.5,60C 487.5,59.3333 498.5,59.3333 509.5,60C 529.181,64.5665 549.181,66.8998 569.5,67C 576.53,69.8512 583.863,71.1845 591.5,71C 599.832,74.2487 608.498,76.2487 617.5,77C 623.788,81.3236 630.788,83.3236 638.5,83C 645.44,87.6308 653.106,90.2974 661.5,91C 668.782,92.641 675.115,95.9744 680.5,101C 688.46,104.312 695.794,108.645 702.5,114C 706.419,115.862 710.419,117.529 714.5,119C 726.521,127.03 738.521,135.03 750.5,143C 761.913,155.074 774.58,165.74 788.5,175C 794.131,182.319 801.131,187.652 809.5,191C 816,197.5 822.5,204 829,210.5C 834.614,223.338 840.614,236.005 847,248.5C 857.2,262.892 865.866,278.226 873,294.5C 883.69,319.888 892.69,345.888 900,372.5C 901.667,374.833 903.333,377.167 905,379.5C 906.7,399.867 908.7,420.201 911,440.5C 911.438,443.376 912.438,446.043 914,448.5C 918.667,454.5 923.333,460.5 928,466.5C 928.499,470.514 928.333,474.514 927.5,478.5C 927.802,481.926 928.802,485.092 930.5,488C 928.068,492.613 924.568,496.446 920,499.5C 913.759,514.891 910.426,530.891 910,547.5C 906.725,556.588 905.058,565.922 905,575.5C 910.466,578.633 914.966,582.8 918.5,588C 918,589.833 916.833,591 915,591.5C 910.035,588.9 904.868,587.233 899.5,586.5C 898.003,592.487 896.503,598.487 895,604.5C 881.24,639.688 865.573,674.021 848,707.5C 845.667,710.833 843.333,714.167 841,717.5C 832.363,725.136 824.03,733.136 816,741.5C 808.207,751.294 799.707,760.461 790.5,769C 785.344,772.493 781.177,776.993 778,782.5C 778.186,786.551 778.019,790.551 777.5,794.5C 774.178,795.946 771.178,795.446 768.5,793C 766.833,792.333 765.167,792.333 763.5,793C 757.92,797.957 751.587,801.624 744.5,804C 730.995,815.169 716.662,825.169 701.5,834C 701.023,836.899 700.023,839.566 698.5,842C 694.823,842.453 691.156,842.286 687.5,841.5C 676.22,843.806 665.887,848.306 656.5,855C 647.824,858.007 639.157,861.007 630.5,864C 621.849,868.816 614.182,874.816 607.5,882C 602.688,881.823 598.855,883.656 596,887.5C 595.257,892.477 595.757,897.31 597.5,902C 597.815,904.704 596.815,906.704 594.5,908C 589.573,908.449 586.073,906.282 584,901.5C 579.002,885.909 569.835,882.742 556.5,892C 552.459,892.173 548.459,892.673 544.5,893.5C 543.978,894.607 543.645,895.774 543.5,897C 546.118,903.66 546.118,910.327 543.5,917C 538.212,918.257 533.546,917.091 529.5,913.5C 528.581,909.712 526.915,906.379 524.5,903.5C 520.698,904.228 517.031,905.394 513.5,907C 511.167,907.667 508.833,907.667 506.5,907C 504.647,904.429 502.981,901.762 501.5,899C 492.23,896.505 482.897,894.172 473.5,892C 470.874,889.854 467.874,888.521 464.5,888C 455.476,887.46 446.476,887.793 437.5,889C 433.122,890.875 429.122,893.375 425.5,896.5C 422.833,894.5 421.5,891.833 421.5,888.5C 418.396,889.864 415.396,889.698 412.5,888C 408.026,884.009 404.026,879.676 400.5,875C 395.81,874.497 391.143,873.83 386.5,873C 384.316,870.632 381.649,869.965 378.5,871C 382.525,875.024 384.525,879.69 384.5,885C 381.574,885.218 378.74,885.718 376,886.5C 375.667,890.167 375.333,893.833 375,897.5C 372.086,898.748 370.253,900.914 369.5,904C 374.091,908.798 379.758,911.798 386.5,913C 388.195,915.224 389.195,917.724 389.5,920.5C 385.039,929.793 378.039,936.626 368.5,941C 364.207,942.202 360.707,941.035 358,937.5C 357.333,931.5 357.333,925.5 358,919.5C 359.549,916.688 360.382,913.688 360.5,910.5C 356.033,910.867 351.7,910.367 347.5,909C 346.196,908.196 345.529,907.029 345.5,905.5C 347.091,901.958 347.591,898.291 347,894.5C 342.795,893.208 338.628,891.875 334.5,890.5C 336.179,889.218 338.013,888.218 340,887.5C 340.234,880.97 337.568,875.97 332,872.5C 330.871,864.067 327.037,857.234 320.5,852C 313.093,850.648 305.76,848.982 298.5,847C 290.667,842.584 283,837.918 275.5,833C 261.82,821.648 248.486,809.981 235.5,798C 229.167,790.333 222.167,783.333 214.5,777C 211.97,775.578 209.303,775.245 206.5,776C 201.221,777.973 196.221,780.473 191.5,783.5C 191.969,780.044 190.302,777.544 186.5,776C 174.461,775.719 162.461,776.385 150.5,778C 143.431,778.385 141.764,781.552 145.5,787.5C 145,787.833 144.5,788.167 144,788.5C 138.284,788.603 133.118,790.269 128.5,793.5C 124.681,792.045 121.015,792.378 117.5,794.5C 118.579,791.847 120.579,789.347 123.5,787C 129.407,785.995 129.741,783.828 124.5,780.5C 122.016,782.483 119.683,784.65 117.5,787C 112.917,787.934 111.417,786.1 113,781.5C 115.167,778.667 117.333,775.833 119.5,773C 114.021,767.19 108.188,761.69 102,756.5C 99.9376,754.099 98.2709,751.433 97,748.5C 90.9275,742.883 84.7608,737.383 78.5,732C 77.1667,731.333 75.8333,731.333 74.5,732C 70.7378,734.206 67.0711,736.373 63.5,738.5 Z"/></g>
<g><path style="opacity:1" fill="#161616" d="M 290.5,96.5 C 292.966,95.3659 295.633,95.1993 298.5,96C 295.954,97.8116 293.288,97.9783 290.5,96.5 Z"/></g>
<g><path style="opacity:1" fill="#000000" d="M 478.5,110.5 C 484.711,110.016 490.711,110.849 496.5,113C 500.536,120.06 505.536,126.394 511.5,132C 517.5,135.333 523.5,135.333 529.5,132C 534.573,126.256 540.24,121.256 546.5,117C 551.47,114.848 556.304,115.014 561,117.5C 560.806,121.26 561.973,124.426 564.5,127C 572.128,132.96 579.462,139.293 586.5,146C 598.962,157.171 613.295,165.171 629.5,170C 635.915,170.675 642.249,170.175 648.5,168.5C 659.171,170.308 669.837,172.141 680.5,174C 688.779,177.473 696.779,181.473 704.5,186C 715.142,194.657 726.475,202.324 738.5,209C 751.675,221.509 764.175,234.676 776,248.5C 778.95,253.118 782.284,257.452 786,261.5C 792.667,272.167 799.333,282.833 806,293.5C 807.257,295.513 808.091,297.679 808.5,300C 804.181,310.441 802.681,321.275 804,332.5C 807.833,340.333 813.667,346.167 821.5,350C 831.765,351.934 836.265,358.101 835,368.5C 852.17,415.012 858.503,463.012 854,512.5C 850.377,536.92 845.043,560.92 838,584.5C 836.587,587.661 834.92,590.661 833,593.5C 830.937,602.689 828.27,611.689 825,620.5C 813.75,644.004 801.75,667.004 789,689.5C 783.177,696.479 777.844,703.812 773,711.5C 764.246,721.41 755.746,731.41 747.5,741.5C 716.903,766.137 684.57,788.304 650.5,808C 642.24,810.799 634.24,814.132 626.5,818C 609.224,817.815 592.557,821.148 576.5,828C 570.916,828.806 565.416,828.639 560,827.5C 558.855,822.917 558.189,818.251 558,813.5C 554.992,809.098 551.325,808.431 547,811.5C 545.663,815.026 545.163,818.692 545.5,822.5C 543.319,822.284 541.653,823.117 540.5,825C 538.167,825.667 535.833,825.667 533.5,825C 530.266,821.855 527.266,818.522 524.5,815C 523.552,814.517 522.552,814.351 521.5,814.5C 521.405,817.358 520.238,819.691 518,821.5C 515.75,820.292 513.583,818.959 511.5,817.5C 508.599,818.233 506.933,820.067 506.5,823C 505.552,823.483 504.552,823.649 503.5,823.5C 503.662,821.473 503.495,819.473 503,817.5C 502.161,816.376 500.994,815.709 499.5,815.5C 496.852,815.967 494.519,817.134 492.5,819C 491,819.167 489.5,819.333 488,819.5C 482.6,818.127 477.1,817.127 471.5,816.5C 467.332,818.124 463.332,817.791 459.5,815.5C 456.782,817.39 453.949,819.056 451,820.5C 444.861,818.336 438.528,817.003 432,816.5C 429.456,816.384 427.289,817.217 425.5,819C 422.167,819.667 418.833,819.667 415.5,819C 413.924,816.923 411.924,815.423 409.5,814.5C 408.594,816.386 407.594,818.22 406.5,820C 405,820.167 403.5,820.333 402,820.5C 399.063,820.309 396.563,819.309 394.5,817.5C 389.178,818.341 383.845,818.174 378.5,817C 348.398,806.772 320.398,792.772 294.5,775C 286.833,768 279.167,761 271.5,754C 264.702,748.544 257.369,743.877 249.5,740C 241.988,732.823 234.155,725.989 226,719.5C 204.603,694.428 185.936,667.428 170,638.5C 166.818,629.801 162.818,621.468 158,613.5C 147.982,585.756 140.315,557.422 135,528.5C 134.276,507.969 133.11,487.469 131.5,467C 132.892,451.536 133.725,436.036 134,420.5C 138.098,407.635 142.764,394.969 148,382.5C 157.791,368.699 166.791,354.366 175,339.5C 183.394,331.55 193.227,326.05 204.5,323C 221.064,313.715 229.897,299.548 231,280.5C 232.463,263.788 231.296,247.288 227.5,231C 228.182,223.991 232.015,221.158 239,222.5C 255.393,225.23 271.893,226.063 288.5,225C 295.442,222.019 302.608,219.852 310,218.5C 314.556,219.264 319.056,220.264 323.5,221.5C 330.717,217.282 338.384,216.449 346.5,219C 355.785,223.619 362.285,230.786 366,240.5C 369.251,244.422 373.084,247.588 377.5,250C 344.751,246.467 318.917,257.967 300,284.5C 287.472,309.163 286.138,334.496 296,360.5C 305.981,381.915 322.481,395.415 345.5,401C 397.476,402.135 449.476,402.969 501.5,403.5C 503.062,407.242 504.395,411.076 505.5,415C 439.678,480.489 373.511,545.656 307,610.5C 285.473,636.633 279.807,665.966 290,698.5C 301.316,729.464 323.483,746.63 356.5,750C 442.182,750.964 527.849,750.631 613.5,749C 649.968,743.862 673.468,723.695 684,688.5C 690.797,659.821 685.797,633.488 669,609.5C 651.895,589.533 630.061,579.033 603.5,578C 580.774,576.212 559.107,580.212 538.5,590C 514.342,602.412 489.675,613.745 464.5,624C 446.688,626.188 438.855,618.355 441,600.5C 442.271,597.567 443.938,594.901 446,592.5C 508.585,531.583 570.918,470.25 633,408.5C 646.05,394.111 656.717,378.111 665,360.5C 674.169,335.228 673.503,310.228 663,285.5C 650.818,264.812 632.652,253.312 608.5,251C 536.167,250.667 463.833,250.333 391.5,250C 393.944,249.196 395.778,247.696 397,245.5C 400.485,233.573 403.651,221.573 406.5,209.5C 405.127,209.343 403.793,209.51 402.5,210C 401.696,211.771 400.529,213.271 399,214.5C 397.26,225.868 394.76,237.034 391.5,248C 390.167,248.667 388.833,248.667 387.5,248C 384.059,246.224 380.892,244.057 378,241.5C 376.496,236.32 374.496,231.32 372,226.5C 371.26,223.824 370.927,221.158 371,218.5C 374.425,216.782 377.759,214.782 381,212.5C 381.333,209.167 381.667,205.833 382,202.5C 385.756,192.051 390.923,182.384 397.5,173.5C 400.695,172.548 403.695,171.215 406.5,169.5C 408.817,166.683 411.317,164.016 414,161.5C 417.433,153.467 421.267,145.634 425.5,138C 429.142,138.651 432.475,140.151 435.5,142.5C 436.938,142.281 438.271,141.781 439.5,141C 446.861,133.634 453.527,125.634 459.5,117C 461.67,115.414 464.004,114.08 466.5,113C 470.767,112.811 474.767,111.977 478.5,110.5 Z"/></g>
</svg>
